Coordinates
version=1
nRows=31
nColumns=34
inDegrees=no

Units are S.I. units (second, meters, Newtons, ...)
If the header above contains a line with 'inDegrees', this indicates whether rotational values are in degrees (yes) or radians (no).

endheader
time	pelvis_tilt	pelvis_list	pelvis_rotation	pelvis_tx	pelvis_ty	pelvis_tz	hip_flexion_r	hip_adduction_r	hip_rotation_r	knee_angle_r	ankle_angle_r	subtalar_angle_r	mtp_angle_r	hip_flexion_l	hip_adduction_l	hip_rotation_l	knee_angle_l	ankle_angle_l	subtalar_angle_l	mtp_angle_l	lumbar_extension	lumbar_bending	lumbar_rotation	arm_flex_r	arm_add_r	arm_rot_r	elbow_flex_r	pro_sup_r	arm_flex_l	arm_add_l	arm_rot_l	elbow_flex_l	pro_sup_l
0.32	-0.109731	-0.0746043	0.149835	-2.86987	1.00513	0.151902	0.839883	-0.102275	-0.394064	0.528802	-0.0806798	0.09106	-0.52576	-0.228537	-0.164512	0.0674148	1.81565	-0.335593	-0.0853018	-0.370528	-0.152378	0.223317	-0.23057	-0.842908	-0.37353	-0.275534	1.13046	2.15952	0.151963	-0.177233	0.0706535	1.61455	2.36869
0.324	-0.102782	-0.0761048	0.144863	-2.8342	1.00491	0.152477	0.811829	-0.0948067	-0.417977	0.534615	-0.0842851	0.0693898	-0.499726	-0.199048	-0.165305	0.0669962	1.89021	-0.322056	-0.112471	-0.333721	-0.17108	0.225737	-0.217231	-0.79429	-0.389697	-0.23801	1.15042	2.11373	0.124077	-0.171291	0.062345	1.52672	2.36972
0.328	-0.0970816	-0.0778191	0.138703	-2.79844	1.00441	0.153086	0.785691	-0.0872264	-0.439444	0.54627	-0.0882253	0.0524476	-0.497954	-0.167225	-0.165487	0.0666236	1.96238	-0.307396	-0.140248	-0.326717	-0.187934	0.228264	-0.202018	-0.744156	-0.405947	-0.2081	1.16163	2.12465	0.100483	-0.164797	0.0542124	1.43447	2.35828
0.332	-0.0941681	-0.0790156	0.131667	-2.7626	1.00353	0.153735	0.762691	-0.0802876	-0.454883	0.561464	-0.0910142	0.0434376	-0.476938	-0.130548	-0.164556	0.0674334	2.03267	-0.289691	-0.162972	-0.284716	-0.201534	0.229502	-0.185156	-0.693795	-0.420952	-0.174024	1.17811	2.08676	0.0802294	-0.158149	0.0444044	1.33743	2.35133
0.336	-0.0895955	-0.08255	0.123342	-2.72671	1.00262	0.15463	0.737346	-0.0693318	-0.464895	0.576245	-0.0974945	0.0424142	-0.479221	-0.0942943	-0.165931	0.0687403	2.09953	-0.271211	-0.179908	-0.279129	-0.216584	0.232943	-0.165733	-0.640645	-0.436189	-0.145152	1.18617	2.09666	0.0646522	-0.150218	0.0364703	1.23529	2.3349
0.34	-0.0849276	-0.0854568	0.115634	-2.69072	1.00153	0.155425	0.710653	-0.0593258	-0.4703	0.591018	-0.103485	0.0539408	-0.472973	-0.0560818	-0.167719	0.0710961	2.16309	-0.252248	-0.19293	-0.232386	-0.231	0.235325	-0.145607	-0.586793	-0.450743	-0.111657	1.19996	2.0597	0.0527353	-0.141922	0.0277825	1.12894	2.31263
0.344	-0.0874346	-0.0927619	0.104578	-2.65504	0.999516	0.157117	0.692471	-0.0405037	-0.465878	0.603403	-0.106808	0.0511072	-0.480487	-0.00898926	-0.17356	0.0763788	2.22549	-0.229057	-0.195553	-0.225473	-0.237911	0.239651	-0.121877	-0.531084	-0.465118	-0.0824166	1.20607	2.07152	0.0430139	-0.136896	0.0215367	1.02126	2.29397
0.348	-0.0941254	-0.0999013	0.0895227	-2.6197	0.9972	0.159192	0.678932	-0.0168569	-0.450234	0.615125	-0.107108	0.0384749	-0.502939	0.0461663	-0.182395	0.0792743	2.28545	-0.211638	-0.195779	-0.231551	-0.241287	0.242158	-0.0948649	-0.472301	-0.478454	-0.049615	1.21521	2.05285	0.0358535	-0.132243	0.0129948	0.910395	2.27801
0.352	-0.0996946	-0.100867	0.0719301	-2.58385	0.994498	0.161506	0.664897	0.00306949	-0.426264	0.637053	-0.0662394	0.0313198	-0.374556	0.0994537	-0.18548	0.0807009	2.3392	-0.196392	-0.19331	-0.253563	-0.245247	0.236431	-0.0676981	-0.410861	-0.490827	-0.0166397	1.21931	2.05882	0.0280245	-0.13236	0.0121382	0.801936	2.24625
0.356	-0.108324	-0.0997941	0.046554	-2.54841	0.991846	0.163758	0.650346	0.0242898	-0.403112	0.663573	0.00423434	0.0319929	-0.229208	0.158854	-0.18709	0.0750799	2.38847	-0.187242	-0.191036	-0.244352	-0.248038	0.22741	-0.0337198	-0.346556	-0.504237	0.0229634	1.23139	2.00968	0.0212844	-0.130064	-0.00492007	0.692617	2.25894
0.36	-0.116737	-0.0955597	0.0243335	-2.51295	0.988742	0.165478	0.63389	0.0399603	-0.384582	0.697769	0.0867524	0.0220104	-0.0458355	0.219317	-0.185884	0.0719381	2.43358	-0.175928	-0.189085	-0.259909	-0.249121	0.21579	-0.0038335	-0.279443	-0.516568	0.0530353	1.23181	2.04145	0.0132564	-0.130008	-0.00900787	0.594217	2.21901
0.364	-0.120891	-0.0901708	0.000437889	-2.47719	0.985804	0.167405	0.612008	0.0557905	-0.360135	0.731376	0.160472	-0.000686136	-0.0390764	0.275689	-0.18632	0.0671684	2.47224	-0.164611	-0.183641	-0.264686	-0.254241	0.201338	0.0265373	-0.208658	-0.5269	0.0889263	1.23764	2.03055	0.00307579	-0.133987	-0.0170494	0.498679	2.21609
0.368	-0.124492	-0.0860494	-0.023599	-2.44126	0.982881	0.169366	0.588825	0.0724214	-0.332551	0.760225	0.222757	-0.0124968	0.0274784	0.331641	-0.190366	0.0632641	2.50475	-0.153566	-0.176632	-0.282498	-0.259067	0.187244	0.0570299	-0.135727	-0.535613	0.121386	1.2413	2.03404	-0.0136941	-0.13755	-0.0207384	0.427607	2.13578
0.372	-0.113599	-0.0773073	-0.0510044	-2.40452	0.981397	0.171139	0.548027	0.0793195	-0.306557	0.789435	0.271299	-0.0272913	0.0196541	0.374695	-0.196462	0.0444757	2.52609	-0.160286	-0.188318	-0.268932	-0.278366	0.166466	0.0897968	-0.0595703	-0.542557	0.157226	1.24578	2.02666	-0.032313	-0.143636	-0.0382891	0.358035	2.12369
0.376	-0.104942	-0.0741689	-0.0747752	-2.36758	0.979813	0.173291	0.508295	0.0878905	-0.281556	0.815833	0.311034	-0.0299319	-0.00605313	0.417864	-0.205344	0.0345803	2.54342	-0.15329	-0.185586	-0.29133	-0.292641	0.151065	0.119361	0.0162073	-0.546901	0.189304	1.24938	2.02884	-0.0596621	-0.152403	-0.0353358	0.314729	2.05396
0.38	-0.0983691	-0.0712034	-0.0945596	-2.33088	0.978265	0.175648	0.46881	0.0938778	-0.255812	0.837429	0.343396	-0.0286323	-0.029672	0.466938	-0.21479	0.0298669	2.55692	-0.145447	-0.183439	-0.288355	-0.303158	0.135845	0.143741	0.0919835	-0.547112	0.217713	1.25546	2.02472	-0.0923156	-0.164673	-0.0534072	0.28122	2.05734
0.384	-0.0932834	-0.0633183	-0.122038	-2.29281	0.977043	0.177858	0.42539	0.0948323	-0.221627	0.85259	0.373216	-0.0179459	-0.0475845	0.510762	-0.221658	0.0117094	2.5603	-0.135496	-0.180953	-0.288337	-0.307633	0.114777	0.172719	0.162886	-0.545281	0.243918	1.2608	2.02	-0.132206	-0.177988	-0.0643749	0.254139	2.07151
0.388	-0.0890219	-0.0625467	-0.137599	-2.25678	0.975872	0.181249	0.380114	0.101699	-0.193006	0.856822	0.391245	-0.0167129	-0.110458	0.568504	-0.236975	0.017479	2.56404	-0.130519	-0.173007	-0.330729	-0.315208	0.0999352	0.190988	0.239669	-0.53806	0.265422	1.26717	2.038	-0.179733	-0.199256	-0.0442875	0.25887	2.04593
0.392	-0.0869792	-0.0575222	-0.153217	-2.21979	0.975341	0.184389	0.332104	0.102072	-0.162569	0.853156	0.405273	-0.0100039	-0.147749	0.623035	-0.244882	0.00911821	2.55347	-0.149204	-0.17585	-0.399783	-0.31701	0.0817055	0.207933	0.308664	-0.526965	0.280301	1.27819	2.03472	-0.229089	-0.221985	-0.0330946	0.256577	2.08175
0.396	-0.090336	-0.0497527	-0.165802	-2.18164	0.974204	0.186526	0.286198	0.0946875	-0.138614	0.843999	0.415569	0.00212526	-0.230433	0.688366	-0.248976	0.00367989	2.54511	-0.146128	-0.203898	-0.398776	-0.307248	0.0649438	0.223126	0.367338	-0.516754	0.283358	1.28876	2.06767	-0.284569	-0.241273	-0.0186803	0.268328	2.06629
0.4	-0.0938827	-0.0318126	-0.176455	-2.14421	0.973475	0.188603	0.241392	0.0745586	-0.115718	0.830423	0.423463	0.0181943	-0.255272	0.750112	-0.236743	-0.00871067	2.53015	-0.130172	-0.207057	-0.395365	-0.297355	0.0368664	0.233114	0.424098	-0.502363	0.282909	1.30798	2.06969	-0.340949	-0.264091	-0.0095933	0.280887	2.08978
0.404	-0.107931	-0.00932512	-0.187464	-2.10546	0.972024	0.189907	0.206795	0.0468275	-0.0985	0.813283	0.42249	0.0394312	-0.356932	0.820894	-0.221942	-0.0278355	2.50994	-0.121921	-0.221251	-0.433753	-0.27011	0.00914571	0.243513	0.470621	-0.48855	0.272275	1.32327	2.12417	-0.406477	-0.288904	0.0408913	0.309905	2.02763
0.408	-0.116593	0.0057573	-0.191744	-2.06634	0.970553	0.191671	0.160812	0.0250132	-0.0893863	0.786146	0.417789	0.0622361	-0.382116	0.888472	-0.214488	-0.0287334	2.49195	-0.0788481	-0.20559	-0.453282	-0.248245	-0.0111026	0.248751	0.513194	-0.472622	0.264629	1.3509	2.12998	-0.476122	-0.314654	0.0636012	0.335139	2.05695
0.412	-0.13097	0.0298405	-0.197748	-2.0271	0.968876	0.193426	0.123311	-0.00668277	-0.0810927	0.75679	0.402071	0.0842324	-0.485658	0.957739	-0.201602	-0.0465647	2.46443	-0.065207	-0.207885	-0.366404	-0.216912	-0.0401644	0.255328	0.551216	-0.454069	0.244932	1.37176	2.18703	-0.550143	-0.339352	0.0809145	0.382931	2.0037
0.416	-0.154528	0.0654692	-0.193236	-1.98486	0.966592	0.191985	0.0920758	-0.0592227	-0.09574	0.721857	0.383533	0.130639	-0.5312	1.03272	-0.166529	-0.0766737	2.42963	-0.0597226	-0.225365	-0.308739	-0.165124	-0.0715296	0.255069	0.572063	-0.439063	0.226034	1.40274	2.18585	-0.627576	-0.360499	0.092428	0.408377	2.02842
0.42	-0.165263	0.0826939	-0.189104	-1.94657	0.965133	0.19464	0.045515	-0.0815142	-0.0976772	0.680032	0.348143	0.148996	-0.635683	1.09624	-0.156106	-0.0845191	2.39481	-0.0569649	-0.241631	-0.321922	-0.142547	-0.0962917	0.254701	0.610253	-0.419214	0.20496	1.43033	2.22852	-0.707509	-0.388944	0.104075	0.46662	2.00878
0.424	-0.178385	0.0964347	-0.183726	-1.90777	0.963731	0.197667	-0.00235851	-0.0970303	-0.0980952	0.630701	0.302588	0.164297	-0.652799	1.15946	-0.150209	-0.087959	2.35732	-0.0493079	-0.254859	-0.321237	-0.117957	-0.118216	0.249906	0.647076	-0.395077	0.190781	1.46207	2.22307	-0.796619	-0.431241	0.15338	0.530734	2.04018
0.428	-0.198019	0.115497	-0.175436	-1.86743	0.961884	0.198917	-0.044548	-0.12027	-0.106685	0.577191	0.243492	0.183482	-0.781785	1.22693	-0.135251	-0.100801	2.31563	-0.0474948	-0.282433	-0.269218	-0.0790976	-0.140366	0.251926	0.671196	-0.379273	0.16185	1.4905	2.27932	-0.877711	-0.441848	0.106461	0.571917	2.05213
0.432	-0.224201	0.133105	-0.166625	-1.82701	0.959933	0.199765	-0.0794052	-0.139822	-0.114465	0.521217	0.168367	0.203067	-0.810544	1.29888	-0.120984	-0.113191	2.26901	-0.062673	-0.314006	-0.231957	-0.0324721	-0.159168	0.256956	0.690688	-0.365586	0.139101	1.5287	2.27482	-0.957956	-0.445597	0.042425	0.614975	2.05853
0.436	-0.251147	0.14882	-0.157104	-1.78657	0.958299	0.200183	-0.111649	-0.15713	-0.123237	0.464847	0.0817343	0.22041	-0.860055	1.36544	-0.10852	-0.123641	2.21835	-0.0744905	-0.335446	-0.203416	0.0122164	-0.176363	0.254747	0.715696	-0.349942	0.125021	1.5633	2.28595	-1.04611	-0.46604	0.0578282	0.662588	2.07459
0.44	-0.275168	0.162888	-0.146084	-1.74608	0.956857	0.200883	-0.14708	-0.17106	-0.133198	0.404678	-0.0198898	0.230309	-0.957566	1.42372	-0.0980005	-0.1318	2.16565	-0.0537872	-0.37765	-0.252785	0.055595	-0.192635	0.260661	0.734636	-0.340507	0.102453	1.59797	2.3149	-1.12021	-0.454373	-0.0276796	0.69687	2.05892
